Coordinates
version=1
nRows=34
nColumns=33
inDegrees=yes

Units are S.I. units (second, meters, Newtons, ...)
Angles are in degrees.

endheader
time	ground_thorax_rot_x	ground_thorax_rot_y	ground_thorax_rot_z	ground_thorax_tx	ground_thorax_ty	ground_thorax_tz	clav_prot_r	clav_elev_r	scapula_abduction_r	scapula_elevation_r	scapula_upward_rot_r	scapula_winging_r	shoulder_elv_r	plane_of_elev_r	axial_rot_r	elbow_flexion_r	pro_sup_r	wrist_flex_r	wrist_dev_r	clav_prot_l	clav_elev_l	scapula_abduction_l	scapula_elevation_l	scapula_upward_rot_l	scapula_winging_l	shoulder_elv_l	plane_of_elev_l	axial_rot_l	elbow_flexion_l	pro_sup_l	wrist_flex_l	wrist_dev_l	
5.7000	40.825828	8.262321	9.313072	-224.310199	842.481827	4.058776	12.264128	40.330060	38.705453	45.000000	-28.169942	-1170.621991	-2813.417976	33.038873	46.596794	731.373690	-0.711718	19.002616	9.266397	8.809603	-45.000000	-38.852372	45.000000	-45.000000	-623.569234	-3691.508040	135.628979	-180.000000	731.703934	40.439361	5.818085	-23.672243	
5.7100	40.805400	8.244628	9.255884	-225.446357	842.948333	4.095234	12.243572	40.293173	38.633833	45.000000	-28.333485	-1170.607598	-2813.367001	33.037980	46.557224	731.384684	-0.787399	19.002745	9.235420	8.836960	-45.000000	-38.846547	45.000000	-45.000000	-623.472739	-3691.549365	135.689651	-180.000000	731.725863	40.873019	5.720200	-23.693147	
5.7200	40.784106	8.222466	9.193150	-226.546100	843.395556	4.133572	12.225628	40.242381	38.572564	45.000000	-28.491613	-1170.593797	-2813.331416	33.037902	46.508952	731.379286	-0.865787	18.999462	9.193621	8.870792	-45.000000	-38.840637	45.000000	-45.000000	-623.371875	-3691.588496	135.734981	-180.000000	731.743372	41.308227	5.627047	-23.712596	
5.7300	40.760879	8.213540	9.141446	-227.609727	843.822954	4.174558	12.208757	40.208560	38.507554	45.000000	-28.657945	-1170.571081	-2813.286617	33.032804	46.467687	731.380945	-0.942838	18.997475	9.161333	8.896076	-45.000000	-38.839632	45.000000	-45.000000	-623.286600	-3691.635494	135.799531	-180.000000	731.762384	41.741207	5.534143	-23.730316	
5.7400	40.735875	8.185208	9.072451	-228.637834	844.229865	4.218622	12.194035	40.150229	38.452582	45.000000	-28.811256	-1170.554833	-2813.262408	33.038107	46.417706	731.377208	-1.021370	18.995141	9.111382	8.929593	-45.000000	-38.838488	45.000000	-45.000000	-623.190829	-3691.676484	135.836572	-180.000000	731.770761	42.172101	5.449949	-23.747646	
5.7500	40.709997	8.163025	9.015745	-229.631506	844.615501	4.265948	12.181159	40.110541	38.387467	45.000000	-28.969878	-1170.528826	-2813.230330	33.047193	46.380151	731.385663	-1.093839	18.995662	9.069961	8.954417	-45.000000	-38.839349	45.000000	-45.000000	-623.108925	-3691.720221	135.894160	-180.000000	731.776231	42.595406	5.367766	-23.763115	
5.7600	40.686331	8.120453	8.946863	-230.592465	844.979143	4.316560	12.169767	40.047780	38.330706	45.000000	-29.114327	-1170.509689	-2813.218011	33.066778	46.338465	731.388185	-1.160558	18.996422	9.009515	8.987433	-45.000000	-38.836012	45.000000	-45.000000	-623.014398	-3691.755070	135.924954	-180.000000	731.770967	43.010590	5.294342	-23.777944	
5.7700	40.664036	8.092641	8.893304	-231.522966	845.320322	4.370410	12.162121	40.010014	38.253736	45.000000	-29.264601	-1170.481479	-2813.191387	33.095337	46.315909	731.392611	-1.210249	18.998543	8.957443	9.010877	-45.000000	-38.826509	45.000000	-45.000000	-622.938424	-3691.788892	135.974943	-180.000000	731.765061	43.411777	5.222052	-23.790527	
5.7800	40.646379	8.054240	8.827258	-232.425562	845.639155	4.427424	12.151962	39.951395	38.192250	45.000000	-29.399837	-1170.466594	-2813.174389	33.120516	46.292940	731.393463	-1.240952	19.003311	8.885025	9.040225	-45.000000	-38.812892	45.000000	-45.000000	-622.851889	-3691.819923	135.995796	-180.000000	731.758759	43.797272	5.157151	-23.804432	
5.7900	40.628085	8.041551	8.788211	-233.302926	845.936608	4.487534	12.145160	39.924052	38.116471	45.000000	-29.547543	-1170.440715	-2813.140884	33.140259	46.293777	731.396411	-1.238452	19.010737	8.822407	9.058153	-45.000000	-38.801105	45.000000	-45.000000	-622.786239	-3691.856059	136.050924	-180.000000	731.756607	44.165126	5.091356	-23.816022	
5.8000	40.612197	8.012401	8.734843	-234.157168	846.214552	4.550675	12.134476	39.871364	38.065103	45.000000	-29.682440	-1170.425185	-2813.123626	33.151220	46.290913	731.393624	-1.202541	19.021152	8.735711	9.085781	-45.000000	-38.789581	45.000000	-45.000000	-622.706205	-3691.891113	136.075875	-180.000000	731.749227	44.519164	5.033907	-23.829419	
5.8100	40.595195	7.997828	8.701245	-234.989719	846.475696	4.616796	12.128998	39.836442	38.004054	45.000000	-29.824435	-1170.404702	-2813.095226	33.165453	46.302658	731.393172	-1.121564	19.034328	8.652043	9.108250	-45.000000	-38.780812	45.000000	-45.000000	-622.637602	-3691.928639	136.122643	-180.000000	731.742888	44.860102	4.976563	-23.841038	
5.8200	40.580489	7.968804	8.656483	-235.801106	846.723310	4.685843	12.118639	39.782955	37.962109	45.000000	-29.950102	-1170.395225	-2813.076835	33.173472	46.307706	731.394045	-0.998408	19.052101	8.548547	9.136100	-45.000000	-38.771102	45.000000	-45.000000	-622.557600	-3691.966013	136.144946	-180.000000	731.734918	45.188906	4.925421	-23.855061	
5.8300	40.563514	7.960257	8.639268	-236.591289	846.960810	4.757776	12.112564	39.754376	37.907228	45.000000	-30.082333	-1170.380428	-2813.041696	33.180967	46.328591	731.403764	-0.828061	19.073070	8.456188	9.152727	-45.000000	-38.765769	45.000000	-45.000000	-622.492809	-3692.009465	136.200305	-180.000000	731.732534	45.503945	4.871429	-23.866316	
5.8400	40.548354	7.938534	8.608745	-237.359991	847.191336	4.832536	12.102377	39.717005	37.857423	45.000000	-30.198140	-1170.371814	-2813.014905	33.190916	46.346650	731.412780	-0.619330	19.096605	8.350832	9.171850	-45.000000	-38.753490	45.000000	-45.000000	-622.424533	-3692.048520	136.232701	-180.000000	731.725862	45.805257	4.822794	-23.878861	
5.8500	40.531768	7.936875	8.601202	-238.106995	847.417299	4.910014	12.094467	39.698109	37.800415	45.000000	-30.320036	-1170.361164	-2812.972687	33.194132	46.379356	731.432343	-0.371126	19.122273	8.258524	9.180708	-45.000000	-38.745941	45.000000	-45.000000	-622.368742	-3692.093420	136.290294	-180.000000	731.725959	46.090807	4.770917	-23.887770	
5.8600	40.514242	7.925403	8.582484	-238.832516	847.640184	4.990016	12.083991	39.673127	37.748384	45.000000	-30.433547	-1170.352920	-2812.940854	33.197518	46.409650	731.449924	-0.091219	19.148911	8.155202	9.192592	-45.000000	-38.737310	45.000000	-45.000000	-622.312392	-3692.133317	136.330797	-180.000000	731.720390	46.364053	4.723897	-23.897247	
5.8700	40.493066	7.921634	8.576112	-239.537224	847.860417	5.072238	12.075627	39.653911	37.692822	45.000000	-30.555273	-1170.340682	-2812.903081	33.199798	46.449324	731.471710	0.221667	19.175195	8.059518	9.200446	-45.000000	-38.731541	45.000000	-45.000000	-622.261805	-3692.172157	136.381325	-180.000000	731.713507	46.626075	4.675630	-23.902418	
5.8800	40.469169	7.903555	8.558080	-240.222278	848.077474	5.156263	12.066329	39.623703	37.644427	45.000000	-30.673172	-1170.331077	-2812.879524	33.206111	46.480830	731.488339	0.562554	19.200947	7.946845	9.214985	-45.000000	-38.725963	45.000000	-45.000000	-622.205458	-3692.203862	136.412688	-180.000000	731.700119	46.881406	4.632272	-23.908468	
5.8900	40.440642	7.887296	8.550545	-240.888776	848.289916	5.241547	12.059267	39.590246	37.596654	45.000000	-30.800146	-1170.318632	-2812.851901	33.214764	46.514932	731.505874	0.935853	19.225029	7.836719	9.229790	-45.000000	-38.719615	45.000000	-45.000000	-622.147871	-3692.232263	136.445844	-180.000000	731.685166	47.131610	4.587553	-23.910308	
5.9000	40.409741	7.864525	8.541772	-241.537751	848.495652	5.327480	12.051874	39.557148	37.548776	45.000000	-30.928465	-1170.306246	-2812.827540	33.228403	46.542044	731.522945	1.339174	19.248949	7.713927	9.244798	-45.000000	-38.714173	45.000000	-45.000000	-622.090435	-3692.256837	136.474621	-180.000000	731.669384	47.377682	4.544895	-23.912759	
5.9100	40.376019	7.843388	8.540411	-242.169704	848.692025	5.413396	12.045958	39.521525	37.496072	45.000000	-31.063297	-1170.291256	-2812.796260	33.247181	46.572633	731.540563	1.775319	19.270413	7.595372	9.257798	-45.000000	-38.702051	45.000000	-45.000000	-622.034165	-3692.276863	136.501997	-180.000000	731.652987	47.617591	4.500831	-23.910887	
5.9200	40.343180	7.819296	8.539323	-242.784618	848.876020	5.498631	12.038721	39.486186	37.447153	45.000000	-31.198716	-1170.280697	-2812.765383	33.263851	46.595444	731.562274	2.239081	19.291729	7.464153	9.270562	-45.000000	-38.692013	45.000000	-45.000000	-621.976875	-3692.298554	136.525745	-180.000000	731.641734	47.850496	4.458474	-23.910355	
5.9300	40.309691	7.801218	8.548892	-243.381608	849.044312	5.582531	12.033554	39.449131	37.391818	45.000000	-31.340318	-1170.266798	-2812.724933	33.284298	46.622322	731.585203	2.731581	19.309811	7.342636	9.281181	-45.000000	-38.673081	45.000000	-45.000000	-621.922354	-3692.317405	136.552269	-180.000000	731.632080	48.074775	4.414483	-23.905329	
5.9400	40.277231	7.775770	8.555262	-243.959017	849.193451	5.664482	12.025033	39.411289	37.349658	45.000000	-31.481003	-1170.257885	-2812.690348	33.295125	46.636337	731.617141	3.243056	19.327616	7.207327	9.291122	-45.000000	-38.668138	45.000000	-45.000000	-621.865626	-3692.341825	136.576718	-180.000000	731.624911	48.291016	4.374588	-23.903263	
5.9500	40.241673	7.756607	8.570560	-244.514561	849.319993	5.743935	12.022325	39.373221	37.294920	45.000000	-31.630972	-1170.239780	-2812.650037	33.314507	46.655507	731.644968	3.777177	19.340290	7.089404	9.300201	-45.000000	-38.654903	45.000000	-45.000000	-621.818859	-3692.359852	136.607815	-180.000000	731.612695	48.499336	4.334327	-23.895845	
5.9600	40.206837	7.732474	8.584465	-245.045201	849.420638	5.820375	12.017046	39.335223	37.249828	45.000000	-31.779628	-1170.223862	-2812.619430	33.324722	46.658635	731.675432	4.322016	19.350428	6.962170	9.310595	-45.000000	-38.648255	45.000000	-45.000000	-621.770062	-3692.384454	136.633501	-180.000000	731.603776	48.699970	4.297665	-23.890863	
5.9700	40.170273	7.723445	8.624891	-245.547384	849.492450	5.893366	12.021570	39.300943	37.177986	45.000000	-31.938225	-1170.193055	-2812.574457	33.353524	46.671218	731.697713	4.876808	19.354789	6.867748	9.320052	-45.000000	-38.615233	45.000000	-45.000000	-621.735293	-3692.405309	136.678102	-180.000000	731.595178	48.891819	4.257036	-23.877787	
5.9800	40.135626	7.707357	8.663724	-246.017126	849.533014	5.962587	12.023991	39.266215	37.117779	45.000000	-32.093715	-1170.164869	-2812.541530	33.374116	46.662823	731.721825	5.425253	19.356367	6.766125	9.333377	-45.000000	-38.588362	45.000000	-45.000000	-621.695648	-3692.433168	136.714016	-180.000000	731.590083	49.077214	4.219929	-23.867172	
5.9900	40.099902	7.705649	8.723142	-246.449883	849.540714	6.027849	12.033283	39.230057	37.041544	45.000000	-32.252972	-1170.127253	-2812.504656	33.402000	46.653968	731.737821	5.959947	19.352044	6.692654	9.343123	-45.000000	-38.548773	45.000000	-45.000000	-621.668595	-3692.459733	136.767437	-180.000000	731.588836	49.254037	4.179846	-23.851201	
6.0000	40.067581	7.691913	8.769426	-246.840577	849.514824	6.089126	12.037047	39.190198	36.988447	45.000000	-32.402506	-1170.097728	-2812.487495	33.414609	46.618653	731.755560	6.458630	19.345186	6.605792	9.357792	-45.000000	-38.524353	45.000000	-45.000000	-621.631699	-3692.492200	136.799101	-180.000000	731.590782	49.423337	4.144892	-23.839052	
6.0100	40.034349	7.691919	8.830921	-247.184140	849.455917	6.146548	12.046559	39.148554	36.921955	45.000000	-32.551347	-1170.060516	-2812.463443	33.432717	46.587499	731.770851	6.910524	19.335591	6.548701	9.363852	-45.000000	-38.499260	45.000000	-45.000000	-621.614948	-3692.521610	136.853240	-180.000000	731.594006	49.580883	4.108121	-23.821761	
6.0200	40.003814	7.680205	8.873378	-247.475932	849.365494	6.200432	12.053095	39.104215	36.876822	45.000000	-32.693812	-1170.028759	-2812.447777	33.439290	46.542297	731.795513	7.303799	19.327291	6.486502	9.373142	-45.000000	-38.496802	45.000000	-45.000000	-621.599056	-3692.554673	136.892163	-180.000000	731.593908	49.729283	4.076635	-23.805802	
6.0300	39.975295	7.675357	8.924072	-247.715406	849.247098	6.251251	12.064758	39.060150	36.818607	45.000000	-32.836852	-1169.988257	-2812.410821	33.458284	46.509369	731.827150	7.641255	19.320732	6.453214	9.378065	-45.000000	-38.486902	45.000000	-45.000000	-621.602366	-3692.589003	136.947296	-180.000000	731.594676	49.866046	4.042775	-23.783415	
